<mxfile host="app.diagrams.net" modified="2023-05-04T05:37:10.628Z" agent="Mozilla/5.0 (Windows NT 10.0; Win64; x64) AppleWebKit/537.36 (KHTML, like Gecko) Chrome/112.0.0.0 Safari/537.36" version="21.2.7" etag="UGlP7BHXvJbOWtWYUDZR" type="github">
  <diagram name="Page-1" id="tYQYfBf_mv1uAqP3FfKb">
    <mxGraphModel>
      <root>
        <mxCell id="0" />
        <mxCell id="1" parent="0" />
      </root>
    </mxGraphModel>
  </diagram>
</mxfile>
